<svg width="620" height="438" viewBox="0 0 620 438" fill="none" xmlns="http://www.w3.org/2000/svg">
<path d="M148.128 173.352C188.857 104.427 255.43 63.8343 333.494 74.8047C363.547 79.0288 390.778 90.495 413.658 107.184C414.811 108.025 414.981 109.545 414.23 110.571L414.068 110.771C413.6 111.282 412.951 111.555 412.289 111.555C411.897 111.555 411.522 111.459 411.175 111.261C394.394 101.66 375.817 97.3921 356.656 94.6963H356.654C290.127 85.3492 227.411 118.809 198.576 175.289C193.955 184.338 194.192 193.903 197.642 201.89C168.504 208.259 137.648 217.195 112.231 225.204C120.75 214.699 128.297 204.119 134.219 195.324C138.507 188.958 141.972 183.487 144.369 179.599C145.568 177.654 146.501 176.103 147.138 175.032C147.457 174.497 147.702 174.081 147.869 173.796C147.952 173.654 148.016 173.544 148.06 173.468C148.082 173.43 148.1 173.4 148.112 173.379C148.118 173.369 148.123 173.361 148.127 173.354C148.127 173.354 148.127 173.352 148.128 173.352Z" stroke="#131B1A" stroke-width="15"/>
<path d="M473.869 171.928C509.933 167.735 543.683 165.925 571.293 168.027C586.374 169.18 596.757 171.256 603.495 173.777C610.449 176.379 612.036 178.872 612.357 179.795C612.61 180.523 612.808 182.48 609.973 186.471C607.214 190.353 602.444 194.858 595.875 199.707C582.822 209.343 564.282 219.168 545.726 227.165C528.428 234.619 511.679 240.24 499.945 242.659C499.923 239.045 500.041 235.555 500.047 231.473C500.053 226.958 499.902 222.135 499.077 217.22L498.903 216.235C496.845 205.161 486.561 197.624 475.43 198.836L475.379 198.841L475.328 198.848L475.134 198.871C443.726 202.337 357.985 213.566 247.022 242.717L241.717 244.119C203.292 254.336 186.911 299.805 210.129 332.104V332.104C233.712 364.918 270.48 387.71 313.97 393.822H313.971C373.916 402.246 430.871 376.781 462.652 329.387L462.656 329.382C463.453 328.193 464.833 327.769 466.01 328.157L466.015 328.158C467.217 328.554 467.992 329.67 467.992 330.907C467.992 331.33 467.899 331.77 467.671 332.218C434.079 398.174 361.226 438.712 283.779 427.824H283.778C247.339 422.704 215.026 406.919 189.567 384.078L189.408 383.936L189.242 383.802H189.24C189.225 383.789 189.188 383.759 189.143 383.724C189.08 383.675 188.962 383.586 188.808 383.478L188.81 383.477C153.275 358.404 116.204 334.137 53.7939 324.281C31.1389 320.703 18.2084 316.433 11.7705 312.311C8.64624 310.31 7.8211 308.83 7.61133 308.228C7.47277 307.83 7.32174 307.078 8.13574 305.448C10.0952 301.524 15.7924 296.246 25.3828 289.989C34.5511 284.008 46.0352 277.898 58.0137 271.875C93.0688 257.016 178.18 234.216 231.863 220.485C232.732 220.331 233.596 220.143 234.445 219.923L234.458 219.919C241.78 218.004 249.909 215.912 258.707 213.704L258.706 213.703C263.809 212.432 268.029 211.39 271.161 210.617C271.656 210.496 272.003 210.409 272.39 210.315L272.4 210.313L272.411 210.311C273.917 209.942 275.09 209.656 275.918 209.456L275.976 209.442L276.034 209.427C276.128 209.403 276.229 209.377 276.357 209.345C276.519 209.306 276.66 209.272 276.745 209.251L276.744 209.249C276.823 209.231 276.922 209.207 277.03 209.179L277.031 209.182C277.031 209.182 277.033 209.181 277.038 209.18C277.043 209.178 277.051 209.176 277.061 209.174C277.083 209.169 277.108 209.163 277.146 209.154L277.262 209.126L277.263 209.127C277.271 209.125 277.278 209.123 277.286 209.121C277.318 209.114 277.354 209.105 277.395 209.095L277.394 209.093C277.405 209.09 277.416 209.087 277.428 209.084L277.429 209.085C328.741 196.632 396.224 181.998 459.302 173.713L459.303 173.714C464.178 173.076 469.037 172.487 473.866 171.928H473.869ZM277.144 209.154C277.134 209.157 277.127 209.157 277.127 209.157C277.127 209.157 277.129 209.157 277.132 209.156C277.135 209.156 277.14 209.155 277.146 209.153L277.144 209.154Z" stroke="#131B1A" stroke-width="15"/>
<path d="M474.968 0.30173C473.553 10.3767 466.625 40.9995 434.488 44.7544C434.077 44.802 434.077 45.3903 434.488 45.4379C466.625 49.1927 473.561 79.8199 474.977 89.8906C475.033 90.2929 475.614 90.2929 475.67 89.8906C477.086 79.8156 484.014 49.1927 516.15 45.4379C516.561 45.3903 516.561 44.802 516.15 44.7544C484.014 40.9995 477.077 10.3724 475.661 0.30173C475.605 -0.100577 475.025 -0.100577 474.968 0.30173Z" fill="#131B1A"/>
<path d="M548.754 74.9577C547.697 81.1913 543.519 96.0031 527.538 98.4991C527.139 98.5597 527.139 99.1177 527.538 99.1783C543.519 101.674 547.702 116.49 548.758 122.72C548.823 123.105 549.382 123.105 549.447 122.72C550.503 116.486 554.682 101.674 570.663 99.1783C571.061 99.1177 571.061 98.5597 570.663 98.4991C554.682 96.0031 550.499 81.187 549.442 74.9577C549.377 74.5727 548.819 74.5727 548.754 74.9577Z" fill="#131B1A"/>
<path d="M545.498 315.394C544.584 320.273 541.328 330.634 529.997 332.676C529.611 332.745 529.611 333.281 529.997 333.351C541.328 335.392 544.588 345.749 545.502 350.632C545.571 351.013 546.117 351.013 546.19 350.632C547.104 345.753 550.36 335.392 561.691 333.351C562.077 333.281 562.077 332.745 561.691 332.676C550.36 330.634 547.1 320.278 546.186 315.394C546.117 315.013 545.571 315.013 545.498 315.394Z" fill="#131B1A"/>
<mask id="path-6-inside-1_66_2" fill="white">
<path d="M270.629 203.025C270.209 203.125 269.793 203.229 269.377 203.333C269.819 203.225 270.235 203.121 270.629 203.025Z"/>
</mask>
<path d="M270.629 203.025L274.153 217.605L267.168 188.43L270.629 203.025ZM269.377 203.333L265.739 188.781L272.948 217.902L269.377 203.333ZM270.629 203.025L267.168 188.43C266.644 188.554 266.14 188.68 265.739 188.781L269.377 203.333L273.015 217.885C273.445 217.777 273.773 217.696 274.089 217.621L270.629 203.025ZM269.377 203.333L272.948 217.902C273.496 217.767 273.775 217.697 274.153 217.605L270.629 203.025L267.104 188.445C266.694 188.544 266.141 188.682 265.806 188.764L269.377 203.333Z" fill="#131B1A" mask="url(#path-6-inside-1_66_2)"/>
</svg>
